<svg width="63" height="69" viewBox="0 0 63 69" fill="none" xmlns="http://www.w3.org/2000/svg">
<path d="M45.1247 18.3456L7.82507 57.2103V58.2536L9.78135 61.6445L10.4334 65.557L22.8232 63.6007L33.5174 54.9931L47.2114 40.908L54.6452 23.432L45.1247 18.3456Z" fill="white"/>
<path d="M27.2669 66.6194C30.0057 66.3586 41.0912 62.1852 46.308 58.4031C47.5827 57.4789 47.0322 55.4434 45.6818 54.6338C44.9767 54.2111 44.2123 53.6888 43.4388 53.0559C42.0293 51.9028 43.5309 52.3624 45.5944 53.2212C47.9372 54.1962 50.6764 53.5647 52.0492 51.4305C53.6238 48.9826 55.1588 46.2984 56.3564 44.0208C56.4103 43.9183 56.3355 43.7962 56.2197 43.7962C54.9156 43.9266 51.7334 43.9527 49.438 43.0137C47.8931 42.3817 50.3029 42.3051 53.1123 42.402C55.5206 42.4851 57.7881 41.2251 58.8831 39.0784C59.1066 38.6402 59.3065 38.2531 59.4802 37.9274C60.0952 36.7743 60.5516 34.8394 60.8928 32.5803L61.1057 31.0152C61.2707 29.6674 61.402 28.2487 61.5074 26.8419C61.8058 22.8581 61.8965 18.9701 61.9581 17.0605C61.9646 16.8587 61.9604 16.6407 61.9462 16.4084L61.7436 14.8434C61.4182 13.0704 60.7538 10.8908 59.9279 8.79719C59.1955 6.94042 56.5398 8.56973 54.9156 7.40955C54.6328 7.20756 54.778 6.76444 55.1292 6.23916C56.2213 4.60578 56.9823 2.05388 55.1764 1.27989C53.6051 0.606478 49.8874 1.17798 45.9443 2.67423C43.1444 3.7367 42.2437 6.92818 42.7956 9.87161C42.9621 10.7592 42.964 11.4291 42.6562 11.5829C42.1082 11.857 41.3053 10.1766 40.6461 8.39292C40.1714 7.10809 38.6202 6.53026 37.5699 7.40955C34.0545 10.3527 32.0765 14.1158 30.7044 17.0605L29.6869 19.2776C29.333 20.0335 29.0147 20.6598 28.7015 21.1035C27.8235 22.3473 26.153 24.935 23.013 29.8415L22.1534 30.8493C22.062 30.9564 22.0118 31.0926 22.0118 31.2334C22.0118 31.3464 21.9795 31.4571 21.9186 31.5523L20.0939 34.4061C19.5511 35.2552 19.0632 36.0166 18.619 36.7065C16.964 39.2774 21.4583 45.4508 18.4538 44.8836C18.3979 44.8731 18.3361 44.8585 18.2681 44.8396C15.8684 44.173 13.0873 44.6932 11.5332 46.6394C11.0902 47.194 10.6014 47.8042 10.0517 48.4913C7.89546 51.1866 7.15472 53.9822 7.05471 56.2366C6.99191 57.6521 8.44856 58.4773 9.7767 57.9836C9.95931 57.9157 10.1326 57.825 10.2923 57.7134L16.9639 53.0559L28.7015 43.7962L38.0916 35.319L40.5966 32.7002C40.8389 32.4468 41.0586 32.1727 41.2531 31.881L43.6057 28.3521C43.9274 27.8695 44.1775 27.3428 44.3481 26.7884L45.6559 22.5381L45.6652 22.4833C45.9263 20.9591 46.331 18.597 47.4817 19.5385C48.159 20.0926 48.7308 20.6564 49.1544 21.1475C49.8009 21.897 50.3534 22.8101 50.5501 23.7801C50.912 25.5651 50.3323 27.9845 50.0901 29.8415C49.8859 31.4065 49.1595 33.55 47.873 35.7103C46.0955 38.6951 43.2003 41.5193 40.9608 43.2746L36.1353 47.5784L30.0057 52.6647L26.0931 55.9251L19.7027 60.0985L14.2251 63.6198L11.6836 65.0721C11.5528 65.1468 11.4115 65.2013 11.2644 65.2338C10.2362 65.461 9.84156 66.6297 10.7861 67.0952C15.2911 69.3155 25.0647 66.8291 27.2669 66.6194Z" fill="white"/>
<path d="M27.2669 66.6194C30.0057 66.3586 41.0912 62.1852 46.308 58.4031C47.5827 57.4789 47.0322 55.4434 45.6818 54.6338C44.9767 54.2111 44.2123 53.6888 43.4388 53.0559C42.0293 51.9028 43.5309 52.3624 45.5944 53.2212C47.9372 54.1962 50.6764 53.5647 52.0492 51.4305C53.6238 48.9826 55.1588 46.2984 56.3564 44.0208C56.4103 43.9183 56.3355 43.7962 56.2197 43.7962C54.9156 43.9266 51.7334 43.9527 49.438 43.0137C47.8931 42.3817 50.3029 42.3051 53.1123 42.402C55.5206 42.4851 57.7881 41.2251 58.8831 39.0784C59.1066 38.6402 59.3065 38.2531 59.4802 37.9274C60.0952 36.7743 60.5516 34.8394 60.8928 32.5803L61.1057 31.0152C61.2707 29.6674 61.402 28.2487 61.5074 26.8419C61.8058 22.8581 61.8965 18.9701 61.9581 17.0605C61.9646 16.8587 61.9604 16.6407 61.9462 16.4084L61.7436 14.8434C61.4182 13.0704 60.7538 10.8908 59.9279 8.79719C59.1955 6.94042 56.5398 8.56973 54.9156 7.40955C54.6328 7.20756 54.778 6.76444 55.1292 6.23916C56.2213 4.60578 56.9823 2.05388 55.1764 1.27989C53.6051 0.606478 49.8874 1.17798 45.9443 2.67423C43.1444 3.7367 42.2437 6.92818 42.7956 9.87161C42.9621 10.7592 42.964 11.4291 42.6562 11.5829C42.1082 11.857 41.3053 10.1766 40.6461 8.39292C40.1714 7.10809 38.6202 6.53026 37.5699 7.40955C34.0545 10.3527 32.0765 14.1158 30.7044 17.0605L29.6869 19.2776C29.333 20.0335 29.0147 20.6598 28.7015 21.1035C27.8235 22.3473 26.153 24.935 23.013 29.8415L22.1534 30.8493C22.062 30.9564 22.0118 31.0926 22.0118 31.2334C22.0118 31.3464 21.9795 31.4571 21.9186 31.5523L20.0939 34.4061C19.5511 35.2552 19.0632 36.0166 18.619 36.7065C16.964 39.2774 21.4583 45.4508 18.4538 44.8836C18.3979 44.8731 18.3361 44.8585 18.2681 44.8396C15.8684 44.173 13.0873 44.6932 11.5332 46.6394C11.0902 47.194 10.6014 47.8042 10.0517 48.4913C7.89546 51.1866 7.15472 53.9822 7.05471 56.2366C6.99191 57.6521 8.44856 58.4773 9.7767 57.9836C9.95931 57.9157 10.1326 57.825 10.2923 57.7134L16.9639 53.0559L28.7015 43.7962L38.0916 35.319L40.5966 32.7002C40.8389 32.4468 41.0586 32.1727 41.2531 31.881L43.6057 28.3521C43.9274 27.8695 44.1775 27.3428 44.3481 26.7884L45.6559 22.5381L45.6652 22.4833C45.9263 20.9591 46.331 18.597 47.4817 19.5385C48.159 20.0926 48.7308 20.6564 49.1544 21.1475C49.8009 21.897 50.3534 22.8101 50.5501 23.7801C50.912 25.5651 50.3323 27.9845 50.0901 29.8415C49.8859 31.4065 49.1595 33.55 47.873 35.7103C46.0955 38.6951 43.2003 41.5193 40.9608 43.2746L36.1353 47.5784L30.0057 52.6647L26.0931 55.9251L19.7027 60.0985L14.2251 63.6198L11.6836 65.0721C11.5528 65.1468 11.4115 65.2013 11.2644 65.2338C10.2362 65.461 9.84156 66.6297 10.7861 67.0952C15.2911 69.3155 25.0647 66.8291 27.2669 66.6194Z" fill="url(#paint0_linear)" style="mix-blend-mode:darken"/>
<path d="M27.2669 66.6194C30.0057 66.3586 41.0912 62.1852 46.308 58.4031C47.5827 57.4789 47.0322 55.4434 45.6818 54.6338C44.9767 54.2111 44.2123 53.6888 43.4388 53.0559C42.0293 51.9028 43.5309 52.3624 45.5944 53.2212C47.9372 54.1962 50.6764 53.5647 52.0492 51.4305C53.6238 48.9826 55.1588 46.2984 56.3564 44.0208C56.4103 43.9183 56.3355 43.7962 56.2197 43.7962C54.9156 43.9266 51.7334 43.9527 49.438 43.0137C47.8931 42.3817 50.3029 42.3051 53.1123 42.402C55.5206 42.4851 57.7881 41.2251 58.8831 39.0784C59.1066 38.6402 59.3065 38.2531 59.4802 37.9274C60.0952 36.7743 60.5516 34.8394 60.8928 32.5803L61.1057 31.0152C61.2707 29.6674 61.402 28.2487 61.5074 26.8419C61.8058 22.8581 61.8965 18.9701 61.9581 17.0605C61.9646 16.8587 61.9604 16.6407 61.9462 16.4084L61.7436 14.8434C61.4182 13.0704 60.7538 10.8908 59.9279 8.79719C59.1955 6.94042 56.5398 8.56973 54.9156 7.40955C54.6328 7.20756 54.778 6.76444 55.1292 6.23916C56.2213 4.60578 56.9823 2.05388 55.1764 1.27989C53.6051 0.606478 49.8874 1.17798 45.9443 2.67423C43.1444 3.7367 42.2437 6.92818 42.7956 9.87161C42.9621 10.7592 42.964 11.4291 42.6562 11.5829C42.1082 11.857 41.3053 10.1766 40.6461 8.39292C40.1714 7.10809 38.6202 6.53026 37.5699 7.40955C34.0545 10.3527 32.0765 14.1158 30.7044 17.0605L29.6869 19.2776C29.333 20.0335 29.0147 20.6598 28.7015 21.1035C27.8235 22.3473 26.153 24.935 23.013 29.8415L22.1534 30.8493C22.062 30.9564 22.0118 31.0926 22.0118 31.2334C22.0118 31.3464 21.9795 31.4571 21.9186 31.5523L20.0939 34.4061C19.5511 35.2552 19.0632 36.0166 18.619 36.7065C16.964 39.2774 21.4583 45.4508 18.4538 44.8836C18.3979 44.8731 18.3361 44.8585 18.2681 44.8396C15.8684 44.173 13.0873 44.6932 11.5332 46.6394C11.0902 47.194 10.6014 47.8042 10.0517 48.4913C7.89546 51.1866 7.15472 53.9822 7.05471 56.2366C6.99191 57.6521 8.44856 58.4773 9.7767 57.9836C9.95931 57.9157 10.1326 57.825 10.2923 57.7134L16.9639 53.0559L28.7015 43.7962L38.0916 35.319L40.5966 32.7002C40.8389 32.4468 41.0586 32.1727 41.2531 31.881L43.6057 28.3521C43.9274 27.8695 44.1775 27.3428 44.3481 26.7884L45.6559 22.5381L45.6652 22.4833C45.9263 20.9591 46.331 18.597 47.4817 19.5385C48.159 20.0926 48.7308 20.6564 49.1544 21.1475C49.8009 21.897 50.3534 22.8101 50.5501 23.7801C50.912 25.5651 50.3323 27.9845 50.0901 29.8415C49.8859 31.4065 49.1595 33.55 47.873 35.7103C46.0955 38.6951 43.2003 41.5193 40.9608 43.2746L36.1353 47.5784L30.0057 52.6647L26.0931 55.9251L19.7027 60.0985L14.2251 63.6198L11.6836 65.0721C11.5528 65.1468 11.4115 65.2013 11.2644 65.2338C10.2362 65.461 9.84156 66.6297 10.7861 67.0952C15.2911 69.3155 25.0647 66.8291 27.2669 66.6194Z" stroke="#9E9A9A"/>
<path d="M38.0214 42.8025C40.2471 40.829 45.5945 36.0877 47.5626 31.7324C47.7792 31.2531 48.069 30.8021 48.2637 30.3136C48.7776 29.0241 48.8453 26.7321 48.7717 24.8709C48.7258 23.7094 48.8923 21.5608 47.733 21.4757C47.5087 21.4592 47.1667 23.0441 47.0809 23.3015C46.8201 24.084 46.168 26.4316 45.6464 27.4749C45.2518 28.264 43.2721 31.3298 41.8449 33.2785C41.6852 33.4966 41.5014 33.6949 41.2991 33.874L24.5186 48.7331L11.6424 58.2983C11.1279 58.6804 10.8247 59.2834 10.8247 59.9243C10.8247 61.4918 12.5289 62.4653 13.8792 61.669L15.911 60.4707L25.9532 53.4281L37.9517 42.8643L38.0214 42.8025Z" fill="white"/>
<path d="M38.0214 42.8025C40.2471 40.829 45.5945 36.0877 47.5626 31.7324C47.7792 31.2531 48.069 30.8021 48.2637 30.3136C48.7776 29.0241 48.8453 26.7321 48.7717 24.8709C48.7258 23.7094 48.8923 21.5608 47.733 21.4757C47.5087 21.4592 47.1667 23.0441 47.0809 23.3015C46.8201 24.084 46.168 26.4316 45.6464 27.4749C45.2518 28.264 43.2721 31.3298 41.8449 33.2785C41.6852 33.4966 41.5014 33.6949 41.2991 33.874L24.5186 48.7331L11.6424 58.2983C11.1279 58.6804 10.8247 59.2834 10.8247 59.9243C10.8247 61.4918 12.5289 62.4653 13.8792 61.669L15.911 60.4707L25.9532 53.4281L37.9517 42.8643L38.0214 42.8025Z" fill="url(#paint1_linear)" style="mix-blend-mode:darken"/>
<path d="M38.0214 42.8025C40.2471 40.829 45.5945 36.0877 47.5626 31.7324C47.7792 31.2531 48.069 30.8021 48.2637 30.3136C48.7776 29.0241 48.8453 26.7321 48.7717 24.8709C48.7258 23.7094 48.8923 21.5608 47.733 21.4757C47.5087 21.4592 47.1667 23.0441 47.0809 23.3015C46.8201 24.084 46.168 26.4316 45.6464 27.4749C45.2518 28.264 43.2721 31.3298 41.8449 33.2785C41.6852 33.4966 41.5014 33.6949 41.2991 33.874L24.5186 48.7331L11.6424 58.2983C11.1279 58.6804 10.8247 59.2834 10.8247 59.9243C10.8247 61.4918 12.5289 62.4653 13.8792 61.669L15.911 60.4707L25.9532 53.4281L37.9517 42.8643L38.0214 42.8025Z" stroke="#9E9A9A"/>
<path d="M2.24505 64.9841C1.28953 64.5063 1.25659 63.1547 2.18769 62.631C3.0759 62.1313 4.17338 62.7732 4.17338 63.7923C4.17338 64.7828 3.13099 65.427 2.24505 64.9841Z" fill="white"/>
<path d="M2.24505 64.9841C1.28953 64.5063 1.25659 63.1547 2.18769 62.631C3.0759 62.1313 4.17338 62.7732 4.17338 63.7923C4.17338 64.7828 3.13099 65.427 2.24505 64.9841Z" fill="url(#paint2_linear)"/>
<path d="M2.24505 64.9841C1.28953 64.5063 1.25659 63.1547 2.18769 62.631C3.0759 62.1313 4.17338 62.7732 4.17338 63.7923C4.17338 64.7828 3.13099 65.427 2.24505 64.9841Z" stroke="#9E9A9A"/>
<path d="M8.22191 64.4037L8.44249 64.2999C9.18017 63.9527 9.65101 63.2108 9.65101 62.3955C9.65101 60.8749 8.08799 59.8561 6.69676 60.4698L6.47373 60.5682C5.70976 60.9053 5.2168 61.6616 5.2168 62.4966C5.2168 64.0416 6.82401 65.0615 8.22191 64.4037Z" fill="white"/>
<path d="M8.22191 64.4037L8.44249 64.2999C9.18017 63.9527 9.65101 63.2108 9.65101 62.3955C9.65101 60.8749 8.08799 59.8561 6.69676 60.4698L6.47373 60.5682C5.70976 60.9053 5.2168 61.6616 5.2168 62.4966C5.2168 64.0416 6.82401 65.0615 8.22191 64.4037Z" fill="url(#paint3_linear)" style="mix-blend-mode:darken"/>
<path d="M8.22191 64.4037L8.44249 64.2999C9.18017 63.9527 9.65101 63.2108 9.65101 62.3955C9.65101 60.8749 8.08799 59.8561 6.69676 60.4698L6.47373 60.5682C5.70976 60.9053 5.2168 61.6616 5.2168 62.4966C5.2168 64.0416 6.82401 65.0615 8.22191 64.4037Z" stroke="#9E9A9A"/>
<defs>
<linearGradient id="paint0_linear" x1="34.5019" y1="1" x2="34.5019" y2="68.0114" gradientUnits="userSpaceOnUse">
<stop stop-color="#FF3333"/>
<stop offset="0.296875" stop-color="#FF5454"/>
<stop offset="0.494792" stop-color="#FF6B6B"/>
<stop offset="0.494892" stop-color="#FF6D6D" stop-opacity="0.97"/>
<stop offset="0.6875" stop-color="#FB7C7C" stop-opacity="0.61"/>
<stop offset="0.848958" stop-color="#F59292" stop-opacity="0.5"/>
<stop offset="1" stop-color="white" stop-opacity="0"/>
</linearGradient>
<linearGradient id="paint1_linear" x1="29.3485" y1="22.7799" x2="29.3485" y2="63.4703" gradientUnits="userSpaceOnUse">
<stop stop-color="#FF5959"/>
<stop offset="0.28125" stop-color="#FF5454"/>
<stop offset="0.604167" stop-color="#FF7E7E" stop-opacity="0.753623"/>
<stop offset="1" stop-color="white" stop-opacity="0"/>
</linearGradient>
<linearGradient id="paint2_linear" x1="2.08669" y1="61.514" x2="2.08669" y2="65.9482" gradientUnits="userSpaceOnUse">
<stop stop-color="#FF9595"/>
<stop offset="1" stop-color="white" stop-opacity="0"/>
</linearGradient>
<linearGradient id="paint3_linear" x1="7.43391" y1="59.1665" x2="7.43391" y2="65.8178" gradientUnits="userSpaceOnUse">
<stop stop-color="#FF5959"/>
<stop offset="0.28125" stop-color="#FF5454"/>
<stop offset="0.604167" stop-color="#FF7E7E" stop-opacity="0.753623"/>
<stop offset="1" stop-color="white" stop-opacity="0"/>
</linearGradient>
</defs>
</svg>
