<svg width="36" height="36" viewBox="0 0 36 36" fill="none" xmlns="http://www.w3.org/2000/svg">
<path d="M36 15.3443C36 19.1886 34.557 22.893 31.9564 25.7242C29.3557 28.5555 25.7871 30.3074 21.9566 30.6333C18.126 30.9592 14.3127 29.8353 11.2712 27.4841C8.22964 25.1329 6.18151 21.7256 5.53206 17.9364C4.88261 14.1473 5.67917 10.2525 7.7641 7.02256C9.84903 3.79265 13.0704 1.46305 16.7909 0.494726C20.5113 -0.473598 24.4597 -0.0100915 27.8547 1.79353C31.2497 3.59715 33.844 6.60947 35.1242 10.2344L20.6558 15.3443H36Z" fill="#C4C4C4"/>
<path d="M33.0491 15.3442C33.0491 18.4479 31.8846 21.4386 29.7858 23.725C27.6871 26.0114 24.8068 27.4272 21.7145 27.6924C18.6222 27.9575 15.543 27.0528 13.0856 25.1571C10.6282 23.2613 8.97154 20.5126 8.44314 17.4542C7.91474 14.3959 8.55307 11.2506 10.2319 8.64026C11.9108 6.02988 14.508 4.14443 17.51 3.35667C20.512 2.56891 23.7003 2.93618 26.4445 4.38587C29.1888 5.83556 31.2893 8.26215 32.3306 11.1859L20.6556 15.3442H33.0491Z" fill="white"/>
<rect y="32.3152" width="13.5738" height="3.54098" rx="1.77049" transform="rotate(-39.9096 0 32.3152)" fill="#C4C4C4"/>
</svg>
