<svg width="40" height="30" viewBox="0 0 40 30" fill="none" xmlns="http://www.w3.org/2000/svg">
<path d="M29.0607 29.0607C28.4749 29.6464 27.5251 29.6464 26.9393 29.0607L17.3934 19.5147C16.8076 18.9289 16.8076 17.9792 17.3934 17.3934C17.9792 16.8076 18.9289 16.8076 19.5147 17.3934L28 25.8787L36.4853 17.3934C37.0711 16.8076 38.0208 16.8076 38.6066 17.3934C39.1924 17.9792 39.1924 18.9289 38.6066 19.5147L29.0607 29.0607ZM29.5 2V28H26.5V2H29.5Z" fill="#FF6B6B"/>
<path d="M12.7013 0.939341C12.1155 0.353554 11.1658 0.353554 10.58 0.939341L1.03402 10.4853C0.448236 11.0711 0.448236 12.0208 1.03402 12.6066C1.61981 13.1924 2.56956 13.1924 3.15534 12.6066L11.6406 4.12132L20.1259 12.6066C20.7117 13.1924 21.6614 13.1924 22.2472 12.6066C22.833 12.0208 22.833 11.0711 22.2472 10.4853L12.7013 0.939341ZM13.1406 28L13.1406 2H10.1406L10.1406 28H13.1406Z" fill="#FF6B6B"/>
</svg>
