<svg width="34" height="26" viewBox="0 0 34 26" fill="none" xmlns="http://www.w3.org/2000/svg">
<path d="M19.6778 25.4723L19.6701 25.4721H19.6624H15.0743C6.95258 25.4721 0.5 19.8145 0.5 12.986C0.5 6.15757 6.95258 0.5 15.0743 0.5C19.0689 0.5 22.1777 2.28801 24.6334 4.77814C27.0914 7.27061 28.8752 10.4482 30.2001 13.1835C30.3417 13.5595 30.5026 13.9786 30.6753 14.4284C31.3237 16.1172 32.1389 18.2404 32.7303 20.1556C33.107 21.3752 33.3825 22.4789 33.4705 23.3135C33.5148 23.7334 33.5074 24.0508 33.4604 24.268C33.4129 24.4868 33.3457 24.5222 33.3375 24.5263C33.1944 24.5981 32.9428 24.6801 32.5729 24.763C32.2111 24.8441 31.7649 24.9198 31.2509 24.9894C30.2233 25.1284 28.9491 25.2397 27.5844 25.3224C24.8549 25.4879 21.7936 25.5374 19.6778 25.4723Z" fill="white" stroke="#9E9A9A"/>
</svg>
