<svg width="66" height="65" viewBox="0 0 66 65" fill="none" xmlns="http://www.w3.org/2000/svg">
<circle cx="33.3672" cy="32" r="31.5" stroke="#9E9A9A"/>
<path d="M20.1011 6.93023C18.7556 6.54579 17.6033 6.6517 16.2154 5.97195C13.4773 6.69725 6.90822 11.4697 2.53749 24.7569C-1.83324 38.0441 7.22042 51.0428 12.2936 55.8813C15.1674 57.9372 21.9231 62.2049 25.9558 62.8293C30.9966 63.6098 37.593 64.0117 40.5531 62.4449C40.0153 62.4449 39.8277 61.8251 39.2667 61.9854C38.6829 62.1522 38.1767 62.3679 37.5339 61.9723C36.5775 61.3838 35.9641 60.0532 34.7509 59.8326C33.5095 59.6069 32.3633 59.6695 31.1016 59.6094C29.6182 59.5388 29.0641 57.046 27.6754 57.2597C25.7697 57.5529 21.2757 60.6266 19.4185 58.7693C18.6603 58.0111 18.349 56.6497 17.5807 55.8813C17.1944 55.4951 17.0453 54.9289 16.5567 54.5292C16.2848 54.3067 15.693 54.0534 15.5066 53.8204C14.9407 53.113 14.0958 52.9486 13.4981 52.2845C12.5511 51.2322 13.5552 49.8385 13.6163 48.7402C13.6513 48.1093 13.4807 46.141 14.4695 46.141C15.2655 46.141 16.5266 46.4055 17.2656 46.036C18.08 45.6288 18.7075 44.9568 19.471 44.487C20.6127 43.7844 22.1204 44.1994 23.3041 43.5418C24.3405 42.966 23.9395 43.2909 24.4855 42.2291C24.7644 41.6869 25.5145 41.1832 25.9558 40.7589C26.5194 40.2169 27.2151 39.9247 27.7804 39.2886C28.3154 38.6868 28.5995 37.923 29.0932 37.3195C29.422 36.9177 30.5348 37.2182 30.9966 37.1095C31.8146 36.917 31.869 36.7129 32.093 35.8729L32.0993 35.8493C32.3408 34.9436 32.2324 33.6421 33.3463 33.3945C34.0075 33.2476 34.451 32.0982 35.1185 31.7274C37.025 30.6682 38.3913 30.7822 40.5663 30.7822C42.6053 30.7822 45.9149 30.7471 45.9878 28.0518C46.0185 26.9141 45.7373 25.8202 44.4388 25.8202C43.9273 25.8202 43.1569 25.6718 42.6797 25.8727C42.118 26.1092 40.8122 27.0136 40.2381 26.6603C39.7931 26.3865 40.212 25.2061 39.9624 24.7569C39.6931 24.2721 39.3667 23.4297 38.8991 23.1291C38.2014 22.6806 36.7933 23.2555 36.3525 22.2759C35.4886 20.3562 38.4265 20.6704 38.4265 19.6767C38.4265 18.9687 39.1706 17.0494 39.7261 16.6049C40.7717 15.7684 41.9064 14.7883 40.6844 13.6382C40.3067 13.2827 39.7572 13.3654 39.4242 12.9556C39.2086 12.6902 39.1559 12.3517 38.7679 12.3517C37.7524 12.3517 36.7449 12.5069 35.7486 12.7062C35.101 12.8357 34.3654 12.9025 33.7008 12.8243C33.4167 12.7909 33.2923 11.4808 32.9394 11.1703C32.3726 10.6715 32.5905 9.94755 32.4668 9.27998C32.3516 8.65787 31.9621 8.31757 31.5873 7.84913C31.0848 7.22105 30.4875 5.73566 29.5657 5.73566C26.9802 5.73566 25.4502 8.72463 22.884 8.80741C22.0761 8.83347 20.9916 7.18466 20.1011 6.93023Z" fill="#C4C4C4" stroke="#9E9A9A" stroke-linecap="round" stroke-linejoin="round"/>
<path d="M58.9315 18.9678C60.1046 18.9678 59.9126 17.3877 60.4018 16.3686C61.1919 16.8911 63.1488 19.6547 64.655 26.529C63.6292 26.529 63.1173 25.334 62.1739 25.1244C61.6689 25.0122 61.0373 25.1113 60.5199 25.1113C59.5001 25.1113 57.33 24.6264 57.33 23.4572V22.2758C57.33 21.7611 57.6108 21.945 57.7501 21.5669C57.9189 21.1088 56.3037 19.644 56.9625 19.2566C57.5702 18.8991 58.2567 18.9678 58.9315 18.9678Z" fill="#C4C4C4" stroke="#9E9A9A" stroke-linecap="round" stroke-linejoin="round"/>
<path d="M60.6978 34.4009C60.2306 32.2985 60.8571 32.3925 62.8376 32.3925C63.4962 32.0963 64.8134 31.6817 64.8134 32.3925C64.8134 33.2809 63.6427 45.7688 58.9598 50.0615C57.5693 49.5252 57.3425 48.2979 57.4029 47.7512C57.1938 47.124 55.8946 46.6708 55.3813 46.0972C54.811 45.4598 55.9051 43.3107 56.4578 42.9729C56.831 42.7449 58.7476 41.0106 57.3504 40.8988C56.3982 40.8227 56.0391 40.0325 56.2346 39.1529C56.3018 38.8504 57.1348 38.5494 57.4029 38.536C58.4495 38.4836 57.9017 37.9214 57.9017 37.0657C57.9017 36.5689 59.0175 36.0324 59.3982 35.9237C59.9685 35.7607 60.8518 35.0937 60.6978 34.4009Z" fill="#C4C4C4" stroke="#9E9A9A" stroke-linecap="round" stroke-linejoin="round"/>
</svg>
