<svg width="65" height="68" viewBox="0 0 65 68" fill="none" xmlns="http://www.w3.org/2000/svg">
<circle cx="32.3672" cy="8.18605" r="7.68605" stroke="#9E9A9A"/>
<path d="M8.19317 49.4364L8.30906 49.2973L8.30906 49.1163C8.30906 45.2608 8.93563 41.4447 10.1516 37.8865C11.3675 34.3282 13.148 31.1004 15.3877 28.3857C17.6272 25.6711 20.2807 23.5241 23.1935 22.0616C26.1059 20.5994 29.2227 19.8488 32.3672 19.8488C35.5116 19.8488 38.6285 20.5994 41.5408 22.0616C44.4537 23.5241 47.1072 25.6711 49.3467 28.3857C51.5864 31.1004 53.3669 34.3282 54.5828 37.8865C55.7988 41.4447 56.4253 45.2608 56.4253 49.1163L56.4253 49.2973L56.5412 49.4364L63.2997 57.5465L1.43471 57.5465L8.19317 49.4364Z" stroke="#9E9A9A"/>
<path d="M24.3672 58C25.1114 60.9767 28.0881 66.9302 34.0416 66.9302C39.9951 66.9302 42.9718 60.9767 43.716 58" stroke="#9E9A9A"/>
</svg>
