<svg width="504" height="148" viewBox="0 0 504 148" fill="none" xmlns="http://www.w3.org/2000/svg">
<path d="M32.064 121H4.896V116.776L13.632 113.608V60.616L4.896 57.448V53.224H34.848C40.736 53.224 45.952 55.176 50.496 59.08C55.04 62.92 57.312 68.36 57.312 75.4C57.312 82.376 55.168 87.816 50.88 91.72C46.592 95.56 41.248 97.48 34.848 97.48H23.328V113.608L32.064 116.776V121ZM23.424 90.472H30.336C35.328 90.472 39.488 89.224 42.816 86.728C46.208 84.232 47.904 80.424 47.904 75.304C47.904 65.384 42.048 60.424 30.336 60.424H23.424V90.472ZM90.4073 121H65.1593V116.872L73.2233 113.704V79.432H65.1593V73.672C67.6553 72.456 70.5353 71.848 73.7993 71.848C77.1273 71.848 79.3673 72.648 80.5193 74.248C81.6713 75.784 82.2473 78.152 82.2473 81.352V113.704L90.4073 116.872V121ZM82.6313 60.808C81.1593 62.28 79.3673 63.016 77.2553 63.016C75.1433 63.016 73.3513 62.28 71.8793 60.808C70.4073 59.336 69.6713 57.544 69.6713 55.432C69.6713 53.32 70.4073 51.528 71.8793 50.056C73.3513 48.584 75.1433 47.848 77.2553 47.848C79.3673 47.848 81.1593 48.584 82.6313 50.056C84.1033 51.528 84.8393 53.32 84.8393 55.432C84.8393 57.544 84.1033 59.336 82.6313 60.808ZM151.274 114.472V120.232C148.778 121.448 145.962 122.056 142.826 122.056C139.69 122.056 137.514 121.416 136.298 120.136C135.082 118.792 134.378 116.84 134.186 114.28C133.354 115.24 132.394 116.2 131.306 117.16C130.218 118.12 128.394 119.176 125.834 120.328C123.338 121.48 120.714 122.056 117.962 122.056C112.97 122.056 109.226 120.68 106.73 117.928C104.234 115.112 102.986 111.304 102.986 106.504V79.432H94.9223V73.672C97.4183 72.456 100.298 71.848 103.562 71.848C106.89 71.848 109.13 72.648 110.282 74.248C111.434 75.784 112.01 78.152 112.01 81.352V103.144C112.01 106.92 112.618 109.736 113.834 111.592C115.114 113.448 117.386 114.376 120.65 114.376C123.914 114.376 126.698 113.768 129.002 112.552C131.306 111.272 133.034 109.96 134.186 108.616V79.432H126.122V73.672C128.618 72.456 131.498 71.848 134.762 71.848C138.09 71.848 140.33 72.648 141.482 74.248C142.634 75.784 143.21 78.152 143.21 81.352V114.472H151.274ZM181.874 147.016H156.626V142.888L164.786 139.72V79.048H156.722V73.768C159.218 72.552 161.938 71.944 164.882 71.944C167.89 71.944 170.034 72.488 171.314 73.576C172.594 74.664 173.362 76.264 173.618 78.376C176.754 74.024 181.426 71.848 187.634 71.848C192.69 71.848 197.362 73.576 201.65 77.032C203.826 78.824 205.554 81.384 206.833 84.712C208.178 87.976 208.85 91.784 208.85 96.136C208.85 100.488 208.114 104.392 206.642 107.848C205.17 111.24 203.186 113.928 200.69 115.912C195.634 119.944 189.746 121.96 183.026 121.96C180.338 121.96 177.266 121.512 173.81 120.616V139.72L181.874 142.888V147.016ZM183.026 114.376C188.21 114.376 192.242 112.84 195.122 109.768C198.066 106.696 199.538 102.408 199.538 96.904C199.538 91.4 198.13 87.112 195.314 84.04C192.498 80.904 189.49 79.336 186.29 79.336C180.722 79.336 176.562 81.096 173.81 84.616V112.648C177.394 113.8 180.466 114.376 183.026 114.376ZM242.751 121H217.503V116.872L225.567 113.704V79.432H217.503V73.672C219.999 72.456 222.879 71.848 226.143 71.848C229.471 71.848 231.711 72.648 232.863 74.248C234.015 75.784 234.591 78.152 234.591 81.352V113.704L242.751 116.872V121ZM234.975 60.808C233.503 62.28 231.711 63.016 229.599 63.016C227.487 63.016 225.695 62.28 224.223 60.808C222.751 59.336 222.015 57.544 222.015 55.432C222.015 53.32 222.751 51.528 224.223 50.056C225.695 48.584 227.487 47.848 229.599 47.848C231.711 47.848 233.503 48.584 234.975 50.056C236.447 51.528 237.183 53.32 237.183 55.432C237.183 57.544 236.447 59.336 234.975 60.808ZM303.618 114.472V120.232C301.122 121.448 298.306 122.056 295.17 122.056C292.034 122.056 289.858 121.416 288.642 120.136C287.426 118.792 286.722 116.84 286.53 114.28C285.698 115.24 284.738 116.2 283.65 117.16C282.562 118.12 280.738 119.176 278.178 120.328C275.682 121.48 273.058 122.056 270.306 122.056C265.314 122.056 261.57 120.68 259.074 117.928C256.578 115.112 255.33 111.304 255.33 106.504V79.432H247.266V73.672C249.762 72.456 252.642 71.848 255.906 71.848C259.234 71.848 261.474 72.648 262.626 74.248C263.778 75.784 264.354 78.152 264.354 81.352V103.144C264.354 106.92 264.962 109.736 266.178 111.592C267.458 113.448 269.73 114.376 272.994 114.376C276.258 114.376 279.042 113.768 281.346 112.552C283.65 111.272 285.378 109.96 286.53 108.616V79.432H278.466V73.672C280.962 72.456 283.842 71.848 287.106 71.848C290.434 71.848 292.674 72.648 293.826 74.248C294.978 75.784 295.554 78.152 295.554 81.352V114.472H303.618ZM305.538 73.096H330.018V77.32L323.49 79.624L333.762 111.976L343.65 79.624L337.122 77.32V73.096H361.602V77.32L354.018 79.816L364.29 111.88L374.178 79.624L367.65 77.32V73.096H391.65V77.32L383.97 79.816L369.09 121H359.49L348.642 88.936L338.562 121H328.962L313.218 79.816L305.538 77.32V73.096ZM421.24 121.96C414.008 121.96 408.12 119.912 403.576 115.816C399.096 111.656 396.856 105.608 396.856 97.672C396.856 89.736 399.16 83.464 403.768 78.856C408.376 74.184 413.752 71.848 419.896 71.848C434.488 71.848 441.784 80.488 441.784 97.768H406.168V98.248C406.168 102.792 407.768 106.632 410.968 109.768C414.168 112.904 418.52 114.472 424.024 114.472C426.392 114.472 428.632 114.216 430.744 113.704C432.856 113.128 434.392 112.552 435.352 111.976L436.696 111.208L439.48 116.2C439.288 116.328 439 116.552 438.616 116.872C438.296 117.128 437.56 117.576 436.408 118.216C435.256 118.856 434.008 119.432 432.664 119.944C429.272 121.288 425.464 121.96 421.24 121.96ZM432.856 91.624C432.536 87.656 431.224 84.648 428.92 82.6C426.68 80.488 423.736 79.432 420.088 79.432C416.504 79.432 413.528 80.456 411.16 82.504C408.792 84.488 407.256 87.528 406.552 91.624H432.856ZM474.778 121H449.53V116.872L457.594 113.704V79.432H449.53V73.672C452.026 72.456 454.842 71.848 457.978 71.848C461.114 71.848 463.29 72.52 464.506 73.864C465.722 75.208 466.394 77.192 466.522 79.816C467.162 77.896 468.474 76.168 470.458 74.632C472.826 72.776 475.962 71.848 479.866 71.848C481.594 71.848 483.226 72.072 484.762 72.52C486.362 72.968 487.514 73.416 488.218 73.864L489.37 74.536V85.864H483.61L482.362 80.104C481.978 79.72 480.922 79.528 479.194 79.528C477.466 79.528 475.802 79.784 474.202 80.296C472.602 80.744 471.354 81.32 470.458 82.024C468.666 83.56 467.386 85.128 466.618 86.728V113.704L474.778 116.872V121Z" fill="#FF5454"/>
<path d="M67.7232 59.6079C68.7644 63.0646 72.4109 65.0242 75.8681 63.9847L94.8902 58.2657C99.3207 56.9337 102.656 53.2696 103.566 48.7346V48.7346C106.127 35.9704 89.9314 28.2436 81.623 38.2658L68.9489 53.5541C67.552 55.2391 67.0919 57.5117 67.7232 59.6079V59.6079Z" fill="#FF6B6B"/>
<path d="M219.859 59.6079C220.9 63.0646 224.546 65.0242 228.003 63.9847L247.026 58.2657C251.456 56.9337 254.791 53.2696 255.701 48.7346V48.7346C258.263 35.9704 242.067 28.2436 233.758 38.2658L221.084 53.5541C219.687 55.2391 219.227 57.5117 219.859 59.6079V59.6079Z" fill="#FF6B6B"/>
</svg>
